<svg xmlns="http://www.w3.org/2000/svg" viewBox="0 0 200 200" fill="none">
  <defs>
    <linearGradient id="geomGrad" x1="0%" y1="0%" x2="100%" y2="100%">
      <stop offset="0%" style="stop-color:hsl(209, 100%, 50%);stop-opacity:0.8" />
      <stop offset="100%" style="stop-color:hsl(211, 100%, 73%);stop-opacity:0.6" />
    </linearGradient>
  </defs>
  
  <!-- Background circle -->
  <circle cx="100" cy="100" r="90" fill="url(#geomGrad)" opacity="0.2"/>
  
  <!-- Geometric pattern -->
  <g stroke="hsl(209, 100%, 50%)" stroke-width="2" fill="none" opacity="0.7">
    <!-- Central hexagon -->
    <polygon points="100,60 130,80 130,120 100,140 70,120 70,80"/>
    
    <!-- Surrounding triangles -->
    <polygon points="100,30 120,60 80,60"/>
    <polygon points="130,80 160,70 160,110"/>
    <polygon points="130,120 160,130 160,170"/>
    <polygon points="100,170 120,140 80,140"/>
    <polygon points="70,120 40,130 40,170"/>
    <polygon points="70,80 40,70 40,110"/>
  </g>
  
  <!-- Accent dots -->
  <g fill="hsl(211, 100%, 73%)" opacity="0.6">
    <circle cx="100" cy="100" r="4"/>
    <circle cx="100" cy="45" r="2"/>
    <circle cx="145" cy="90" r="2"/>
    <circle cx="145" cy="150" r="2"/>
    <circle cx="100" cy="155" r="2"/>
    <circle cx="55" cy="150" r="2"/>
    <circle cx="55" cy="90" r="2"/>
  </g>
</svg>